<svg width="16" height="17" viewBox="0 0 16 17" fill="none" xmlns="http://www.w3.org/2000/svg">
<path d="M7.99996 1.51614C9.3525 1.51614 10.4489 2.67154 10.4489 4.09679V4.61292H5.55099V4.09679C5.55099 2.67154 6.64743 1.51614 7.99996 1.51614ZM11.4285 4.61292V4.09679C11.4285 2.10144 9.89351 0.483887 7.99996 0.483887C6.10642 0.483887 4.57139 2.10144 4.57139 4.09679V4.61292H1.14282V14.9355C1.14282 16.0757 2.01998 17 3.10201 17H12.8979C13.98 17 14.8571 16.0757 14.8571 14.9355V4.61292H11.4285ZM2.12241 5.64518H13.8775V14.9355C13.8775 15.5056 13.4389 15.9678 12.8979 15.9678H3.10201C2.56099 15.9678 2.12241 15.5056 2.12241 14.9355V5.64518Z" fill="#333333"/>
</svg>
